<mxfile host="app.diagrams.net" modified="2023-12-18T09:08:24.301Z" agent="Mozilla/5.0 (Windows NT 10.0; Win64; x64) AppleWebKit/537.36 (KHTML, like Gecko) Chrome/120.0.0.0 Safari/537.36" etag="5HCDDMb4u2TJL1eq3h3C" version="22.1.11" type="device">
  <diagram name="Page-1" id="QjTo8kEE8wPIJwBDdv7z">
    <mxGraphModel dx="1997" dy="632" grid="1" gridSize="10" guides="1" tooltips="1" connect="1" arrows="1" fold="1" page="1" pageScale="1" pageWidth="850" pageHeight="1100" math="0" shadow="0">
      <root>
        <mxCell id="0" />
        <mxCell id="1" parent="0" />
        <mxCell id="m9dfge4vshhXxdxs11Ri-1" value="" style="rounded=0;whiteSpace=wrap;html=1;" vertex="1" parent="1">
          <mxGeometry x="-130" y="260" width="630" height="230" as="geometry" />
        </mxCell>
        <mxCell id="m9dfge4vshhXxdxs11Ri-2" value="Код" style="rounded=0;whiteSpace=wrap;html=1;" vertex="1" parent="1">
          <mxGeometry x="-130" y="230" width="30" height="60" as="geometry" />
        </mxCell>
        <mxCell id="m9dfge4vshhXxdxs11Ri-3" value="1" style="rounded=0;whiteSpace=wrap;html=1;" vertex="1" parent="1">
          <mxGeometry x="-130" y="290" width="30" height="20" as="geometry" />
        </mxCell>
        <mxCell id="m9dfge4vshhXxdxs11Ri-4" value="3" style="rounded=0;whiteSpace=wrap;html=1;" vertex="1" parent="1">
          <mxGeometry x="-130" y="330" width="30" height="20" as="geometry" />
        </mxCell>
        <mxCell id="m9dfge4vshhXxdxs11Ri-5" value="4" style="rounded=0;whiteSpace=wrap;html=1;" vertex="1" parent="1">
          <mxGeometry x="-130" y="350" width="30" height="20" as="geometry" />
        </mxCell>
        <mxCell id="m9dfge4vshhXxdxs11Ri-6" value="5" style="rounded=0;whiteSpace=wrap;html=1;" vertex="1" parent="1">
          <mxGeometry x="-130" y="370" width="30" height="20" as="geometry" />
        </mxCell>
        <mxCell id="m9dfge4vshhXxdxs11Ri-7" value="6" style="rounded=0;whiteSpace=wrap;html=1;" vertex="1" parent="1">
          <mxGeometry x="-130" y="390" width="30" height="20" as="geometry" />
        </mxCell>
        <mxCell id="m9dfge4vshhXxdxs11Ri-8" value="7" style="rounded=0;whiteSpace=wrap;html=1;" vertex="1" parent="1">
          <mxGeometry x="-130" y="410" width="30" height="20" as="geometry" />
        </mxCell>
        <mxCell id="m9dfge4vshhXxdxs11Ri-9" value="8" style="rounded=0;whiteSpace=wrap;html=1;" vertex="1" parent="1">
          <mxGeometry x="-130" y="430" width="30" height="20" as="geometry" />
        </mxCell>
        <mxCell id="m9dfge4vshhXxdxs11Ri-10" value="9" style="rounded=0;whiteSpace=wrap;html=1;" vertex="1" parent="1">
          <mxGeometry x="-130" y="450" width="30" height="20" as="geometry" />
        </mxCell>
        <mxCell id="m9dfge4vshhXxdxs11Ri-11" value="10" style="rounded=0;whiteSpace=wrap;html=1;" vertex="1" parent="1">
          <mxGeometry x="-130" y="470" width="30" height="20" as="geometry" />
        </mxCell>
        <mxCell id="m9dfge4vshhXxdxs11Ri-16" value="2" style="rounded=0;whiteSpace=wrap;html=1;" vertex="1" parent="1">
          <mxGeometry x="-130" y="310" width="30" height="20" as="geometry" />
        </mxCell>
        <mxCell id="m9dfge4vshhXxdxs11Ri-17" value="Задача" style="rounded=0;whiteSpace=wrap;html=1;" vertex="1" parent="1">
          <mxGeometry x="-100" y="230" width="260" height="60" as="geometry" />
        </mxCell>
        <mxCell id="m9dfge4vshhXxdxs11Ri-18" value="Створити план ПЗ" style="rounded=0;whiteSpace=wrap;html=1;" vertex="1" parent="1">
          <mxGeometry x="-100" y="290" width="260" height="20" as="geometry" />
        </mxCell>
        <mxCell id="m9dfge4vshhXxdxs11Ri-19" value="Перевести необхідних людей з інших відділів" style="rounded=0;whiteSpace=wrap;html=1;" vertex="1" parent="1">
          <mxGeometry x="-100" y="310" width="260" height="20" as="geometry" />
        </mxCell>
        <mxCell id="m9dfge4vshhXxdxs11Ri-20" value="Створити вакансії щоб добрати команду" style="rounded=0;whiteSpace=wrap;html=1;" vertex="1" parent="1">
          <mxGeometry x="-100" y="330" width="260" height="20" as="geometry" />
        </mxCell>
        <mxCell id="m9dfge4vshhXxdxs11Ri-21" value="Організувати роботу команди" style="rounded=0;whiteSpace=wrap;html=1;" vertex="1" parent="1">
          <mxGeometry x="-100" y="350" width="260" height="20" as="geometry" />
        </mxCell>
        <mxCell id="m9dfge4vshhXxdxs11Ri-22" value="Розбити роботу по створеним командам" style="rounded=0;whiteSpace=wrap;html=1;" vertex="1" parent="1">
          <mxGeometry x="-100" y="370" width="260" height="20" as="geometry" />
        </mxCell>
        <mxCell id="m9dfge4vshhXxdxs11Ri-24" value="Створювати проєкт за планом" style="rounded=0;whiteSpace=wrap;html=1;" vertex="1" parent="1">
          <mxGeometry x="-100" y="390" width="260" height="20" as="geometry" />
        </mxCell>
        <mxCell id="m9dfge4vshhXxdxs11Ri-25" value="Рекламування проєкту" style="rounded=0;whiteSpace=wrap;html=1;" vertex="1" parent="1">
          <mxGeometry x="-100" y="410" width="260" height="20" as="geometry" />
        </mxCell>
        <mxCell id="m9dfge4vshhXxdxs11Ri-26" value="Провести тестування бета версії ПЗ" style="rounded=0;whiteSpace=wrap;html=1;" vertex="1" parent="1">
          <mxGeometry x="-100" y="430" width="260" height="20" as="geometry" />
        </mxCell>
        <mxCell id="m9dfge4vshhXxdxs11Ri-27" value="Випуск ПЗ у відкритий доступ" style="rounded=0;whiteSpace=wrap;html=1;" vertex="1" parent="1">
          <mxGeometry x="-100" y="450" width="260" height="20" as="geometry" />
        </mxCell>
        <mxCell id="m9dfge4vshhXxdxs11Ri-28" value="Піар компанія" style="rounded=0;whiteSpace=wrap;html=1;" vertex="1" parent="1">
          <mxGeometry x="-100" y="470" width="260" height="20" as="geometry" />
        </mxCell>
        <mxCell id="m9dfge4vshhXxdxs11Ri-30" value="Початок" style="rounded=0;whiteSpace=wrap;html=1;" vertex="1" parent="1">
          <mxGeometry x="160" y="230" width="90" height="60" as="geometry" />
        </mxCell>
        <mxCell id="m9dfge4vshhXxdxs11Ri-31" value="7.11.2006" style="rounded=0;whiteSpace=wrap;html=1;" vertex="1" parent="1">
          <mxGeometry x="160" y="290" width="90" height="20" as="geometry" />
        </mxCell>
        <mxCell id="m9dfge4vshhXxdxs11Ri-32" value="Кінець" style="rounded=0;whiteSpace=wrap;html=1;" vertex="1" parent="1">
          <mxGeometry x="250" y="230" width="90" height="60" as="geometry" />
        </mxCell>
        <mxCell id="m9dfge4vshhXxdxs11Ri-33" value="14.11.2006" style="rounded=0;whiteSpace=wrap;html=1;" vertex="1" parent="1">
          <mxGeometry x="250" y="290" width="90" height="20" as="geometry" />
        </mxCell>
        <mxCell id="m9dfge4vshhXxdxs11Ri-34" value="Тривалість" style="rounded=0;whiteSpace=wrap;html=1;" vertex="1" parent="1">
          <mxGeometry x="340" y="230" width="80" height="60" as="geometry" />
        </mxCell>
        <mxCell id="m9dfge4vshhXxdxs11Ri-35" value="1н" style="rounded=0;whiteSpace=wrap;html=1;" vertex="1" parent="1">
          <mxGeometry x="340" y="290" width="80" height="20" as="geometry" />
        </mxCell>
        <mxCell id="m9dfge4vshhXxdxs11Ri-36" value="14.11.2006" style="rounded=0;whiteSpace=wrap;html=1;" vertex="1" parent="1">
          <mxGeometry x="160" y="310" width="90" height="20" as="geometry" />
        </mxCell>
        <mxCell id="m9dfge4vshhXxdxs11Ri-37" value="16.11.2006" style="rounded=0;whiteSpace=wrap;html=1;" vertex="1" parent="1">
          <mxGeometry x="250" y="310" width="90" height="20" as="geometry" />
        </mxCell>
        <mxCell id="m9dfge4vshhXxdxs11Ri-38" value="2д" style="rounded=0;whiteSpace=wrap;html=1;" vertex="1" parent="1">
          <mxGeometry x="340" y="310" width="80" height="20" as="geometry" />
        </mxCell>
        <mxCell id="m9dfge4vshhXxdxs11Ri-39" value="16.11.2006" style="rounded=0;whiteSpace=wrap;html=1;" vertex="1" parent="1">
          <mxGeometry x="160" y="330" width="90" height="20" as="geometry" />
        </mxCell>
        <mxCell id="m9dfge4vshhXxdxs11Ri-40" value="30.11.2006" style="rounded=0;whiteSpace=wrap;html=1;" vertex="1" parent="1">
          <mxGeometry x="250" y="330" width="90" height="20" as="geometry" />
        </mxCell>
        <mxCell id="m9dfge4vshhXxdxs11Ri-41" value="10д" style="rounded=0;whiteSpace=wrap;html=1;" vertex="1" parent="1">
          <mxGeometry x="340" y="330" width="80" height="20" as="geometry" />
        </mxCell>
        <mxCell id="m9dfge4vshhXxdxs11Ri-42" value="30.11.2006" style="rounded=0;whiteSpace=wrap;html=1;" vertex="1" parent="1">
          <mxGeometry x="160" y="350" width="90" height="20" as="geometry" />
        </mxCell>
        <mxCell id="m9dfge4vshhXxdxs11Ri-43" value="5.12.2006" style="rounded=0;whiteSpace=wrap;html=1;" vertex="1" parent="1">
          <mxGeometry x="250" y="350" width="90" height="20" as="geometry" />
        </mxCell>
        <mxCell id="m9dfge4vshhXxdxs11Ri-44" value="1н" style="rounded=0;whiteSpace=wrap;html=1;" vertex="1" parent="1">
          <mxGeometry x="340" y="350" width="80" height="20" as="geometry" />
        </mxCell>
        <mxCell id="m9dfge4vshhXxdxs11Ri-46" value="5.12.2006" style="rounded=0;whiteSpace=wrap;html=1;" vertex="1" parent="1">
          <mxGeometry x="160" y="370" width="90" height="20" as="geometry" />
        </mxCell>
        <mxCell id="m9dfge4vshhXxdxs11Ri-47" value="12.12.2006" style="rounded=0;whiteSpace=wrap;html=1;" vertex="1" parent="1">
          <mxGeometry x="250" y="370" width="90" height="20" as="geometry" />
        </mxCell>
        <mxCell id="m9dfge4vshhXxdxs11Ri-48" value="1н" style="rounded=0;whiteSpace=wrap;html=1;" vertex="1" parent="1">
          <mxGeometry x="340" y="370" width="80" height="20" as="geometry" />
        </mxCell>
        <mxCell id="m9dfge4vshhXxdxs11Ri-49" value="12.12.2006" style="rounded=0;whiteSpace=wrap;html=1;" vertex="1" parent="1">
          <mxGeometry x="160" y="390" width="90" height="20" as="geometry" />
        </mxCell>
        <mxCell id="m9dfge4vshhXxdxs11Ri-50" value="01.06.2007" style="rounded=0;whiteSpace=wrap;html=1;" vertex="1" parent="1">
          <mxGeometry x="250" y="390" width="90" height="20" as="geometry" />
        </mxCell>
        <mxCell id="m9dfge4vshhXxdxs11Ri-51" value="6м" style="rounded=0;whiteSpace=wrap;html=1;" vertex="1" parent="1">
          <mxGeometry x="340" y="390" width="80" height="20" as="geometry" />
        </mxCell>
        <mxCell id="m9dfge4vshhXxdxs11Ri-52" value="1.06.2006" style="rounded=0;whiteSpace=wrap;html=1;" vertex="1" parent="1">
          <mxGeometry x="160" y="410" width="90" height="20" as="geometry" />
        </mxCell>
        <mxCell id="m9dfge4vshhXxdxs11Ri-53" value="12.07.2007" style="rounded=0;whiteSpace=wrap;html=1;" vertex="1" parent="1">
          <mxGeometry x="250" y="410" width="90" height="20" as="geometry" />
        </mxCell>
        <mxCell id="m9dfge4vshhXxdxs11Ri-54" value="1м" style="rounded=0;whiteSpace=wrap;html=1;" vertex="1" parent="1">
          <mxGeometry x="340" y="410" width="80" height="20" as="geometry" />
        </mxCell>
        <mxCell id="m9dfge4vshhXxdxs11Ri-55" value="12.07.2007" style="rounded=0;whiteSpace=wrap;html=1;" vertex="1" parent="1">
          <mxGeometry x="160" y="430" width="90" height="20" as="geometry" />
        </mxCell>
        <mxCell id="m9dfge4vshhXxdxs11Ri-56" value="31.07.2007" style="rounded=0;whiteSpace=wrap;html=1;" vertex="1" parent="1">
          <mxGeometry x="250" y="430" width="90" height="20" as="geometry" />
        </mxCell>
        <mxCell id="m9dfge4vshhXxdxs11Ri-57" value="3н" style="rounded=0;whiteSpace=wrap;html=1;" vertex="1" parent="1">
          <mxGeometry x="340" y="430" width="80" height="20" as="geometry" />
        </mxCell>
        <mxCell id="m9dfge4vshhXxdxs11Ri-58" value="31.07.2007" style="rounded=0;whiteSpace=wrap;html=1;" vertex="1" parent="1">
          <mxGeometry x="160" y="450" width="90" height="20" as="geometry" />
        </mxCell>
        <mxCell id="m9dfge4vshhXxdxs11Ri-59" value="01.08.2007" style="rounded=0;whiteSpace=wrap;html=1;" vertex="1" parent="1">
          <mxGeometry x="250" y="450" width="90" height="20" as="geometry" />
        </mxCell>
        <mxCell id="m9dfge4vshhXxdxs11Ri-60" value="1д" style="rounded=0;whiteSpace=wrap;html=1;" vertex="1" parent="1">
          <mxGeometry x="340" y="450" width="80" height="20" as="geometry" />
        </mxCell>
        <mxCell id="m9dfge4vshhXxdxs11Ri-61" value="01.08.2007" style="rounded=0;whiteSpace=wrap;html=1;" vertex="1" parent="1">
          <mxGeometry x="160" y="470" width="90" height="20" as="geometry" />
        </mxCell>
        <mxCell id="m9dfge4vshhXxdxs11Ri-62" value="31.08.2007" style="rounded=0;whiteSpace=wrap;html=1;" vertex="1" parent="1">
          <mxGeometry x="250" y="470" width="90" height="20" as="geometry" />
        </mxCell>
        <mxCell id="m9dfge4vshhXxdxs11Ri-63" value="1м" style="rounded=0;whiteSpace=wrap;html=1;" vertex="1" parent="1">
          <mxGeometry x="340" y="470" width="80" height="20" as="geometry" />
        </mxCell>
        <mxCell id="m9dfge4vshhXxdxs11Ri-67" value="Завершено" style="rounded=0;whiteSpace=wrap;html=1;" vertex="1" parent="1">
          <mxGeometry x="420" y="230" width="80" height="60" as="geometry" />
        </mxCell>
        <mxCell id="m9dfge4vshhXxdxs11Ri-68" value="100%" style="rounded=0;whiteSpace=wrap;html=1;" vertex="1" parent="1">
          <mxGeometry x="420" y="290" width="80" height="20" as="geometry" />
        </mxCell>
        <mxCell id="m9dfge4vshhXxdxs11Ri-69" value="100%" style="rounded=0;whiteSpace=wrap;html=1;" vertex="1" parent="1">
          <mxGeometry x="420" y="310" width="80" height="20" as="geometry" />
        </mxCell>
        <mxCell id="m9dfge4vshhXxdxs11Ri-70" value="100%" style="rounded=0;whiteSpace=wrap;html=1;" vertex="1" parent="1">
          <mxGeometry x="420" y="330" width="80" height="20" as="geometry" />
        </mxCell>
        <mxCell id="m9dfge4vshhXxdxs11Ri-71" value="100%" style="rounded=0;whiteSpace=wrap;html=1;" vertex="1" parent="1">
          <mxGeometry x="420" y="350" width="80" height="20" as="geometry" />
        </mxCell>
        <mxCell id="m9dfge4vshhXxdxs11Ri-72" value="100%" style="rounded=0;whiteSpace=wrap;html=1;" vertex="1" parent="1">
          <mxGeometry x="420" y="370" width="80" height="20" as="geometry" />
        </mxCell>
        <mxCell id="m9dfge4vshhXxdxs11Ri-73" value="30%" style="rounded=0;whiteSpace=wrap;html=1;" vertex="1" parent="1">
          <mxGeometry x="420" y="390" width="80" height="20" as="geometry" />
        </mxCell>
        <mxCell id="m9dfge4vshhXxdxs11Ri-74" value="0%" style="rounded=0;whiteSpace=wrap;html=1;" vertex="1" parent="1">
          <mxGeometry x="420" y="410" width="80" height="20" as="geometry" />
        </mxCell>
        <mxCell id="m9dfge4vshhXxdxs11Ri-75" value="0%" style="rounded=0;whiteSpace=wrap;html=1;" vertex="1" parent="1">
          <mxGeometry x="420" y="430" width="80" height="20" as="geometry" />
        </mxCell>
        <mxCell id="m9dfge4vshhXxdxs11Ri-76" value="0%" style="rounded=0;whiteSpace=wrap;html=1;" vertex="1" parent="1">
          <mxGeometry x="420" y="450" width="80" height="20" as="geometry" />
        </mxCell>
        <mxCell id="m9dfge4vshhXxdxs11Ri-77" value="0%" style="rounded=0;whiteSpace=wrap;html=1;" vertex="1" parent="1">
          <mxGeometry x="420" y="470" width="80" height="20" as="geometry" />
        </mxCell>
        <mxCell id="m9dfge4vshhXxdxs11Ri-293" value="" style="rounded=0;whiteSpace=wrap;html=1;" vertex="1" parent="1">
          <mxGeometry x="500" y="290" width="440" height="200" as="geometry" />
        </mxCell>
        <mxCell id="m9dfge4vshhXxdxs11Ri-294" value="2006" style="rounded=0;whiteSpace=wrap;html=1;" vertex="1" parent="1">
          <mxGeometry x="500" y="230" width="120" height="30" as="geometry" />
        </mxCell>
        <mxCell id="m9dfge4vshhXxdxs11Ri-295" value="Лис." style="rounded=0;whiteSpace=wrap;html=1;" vertex="1" parent="1">
          <mxGeometry x="530" y="260" width="50" height="30" as="geometry" />
        </mxCell>
        <mxCell id="m9dfge4vshhXxdxs11Ri-296" value="Січ." style="rounded=0;whiteSpace=wrap;html=1;" vertex="1" parent="1">
          <mxGeometry x="580" y="260" width="40" height="30" as="geometry" />
        </mxCell>
        <mxCell id="m9dfge4vshhXxdxs11Ri-297" value="Лют." style="rounded=0;whiteSpace=wrap;html=1;" vertex="1" parent="1">
          <mxGeometry x="620" y="260" width="40" height="30" as="geometry" />
        </mxCell>
        <mxCell id="m9dfge4vshhXxdxs11Ri-298" value="Бер." style="rounded=0;whiteSpace=wrap;html=1;" vertex="1" parent="1">
          <mxGeometry x="660" y="260" width="40" height="30" as="geometry" />
        </mxCell>
        <mxCell id="m9dfge4vshhXxdxs11Ri-299" value="Кв." style="rounded=0;whiteSpace=wrap;html=1;" vertex="1" parent="1">
          <mxGeometry x="700" y="260" width="40" height="30" as="geometry" />
        </mxCell>
        <mxCell id="m9dfge4vshhXxdxs11Ri-300" value="Тр." style="rounded=0;whiteSpace=wrap;html=1;" vertex="1" parent="1">
          <mxGeometry x="740" y="260" width="40" height="30" as="geometry" />
        </mxCell>
        <mxCell id="m9dfge4vshhXxdxs11Ri-301" value="Чер." style="rounded=0;whiteSpace=wrap;html=1;" vertex="1" parent="1">
          <mxGeometry x="780" y="260" width="40" height="30" as="geometry" />
        </mxCell>
        <mxCell id="m9dfge4vshhXxdxs11Ri-302" value="Лип." style="rounded=0;whiteSpace=wrap;html=1;" vertex="1" parent="1">
          <mxGeometry x="820" y="260" width="40" height="30" as="geometry" />
        </mxCell>
        <mxCell id="m9dfge4vshhXxdxs11Ri-303" value="Сер." style="rounded=0;whiteSpace=wrap;html=1;" vertex="1" parent="1">
          <mxGeometry x="860" y="260" width="40" height="30" as="geometry" />
        </mxCell>
        <mxCell id="m9dfge4vshhXxdxs11Ri-304" value="Вер." style="rounded=0;whiteSpace=wrap;html=1;" vertex="1" parent="1">
          <mxGeometry x="900" y="260" width="40" height="30" as="geometry" />
        </mxCell>
        <mxCell id="m9dfge4vshhXxdxs11Ri-305" value="Код" style="rounded=0;whiteSpace=wrap;html=1;" vertex="1" parent="1">
          <mxGeometry x="500" y="260" width="30" height="30" as="geometry" />
        </mxCell>
        <mxCell id="m9dfge4vshhXxdxs11Ri-306" value="1" style="rounded=0;whiteSpace=wrap;html=1;" vertex="1" parent="1">
          <mxGeometry x="500" y="290" width="30" height="20" as="geometry" />
        </mxCell>
        <mxCell id="m9dfge4vshhXxdxs11Ri-307" value="3" style="rounded=0;whiteSpace=wrap;html=1;" vertex="1" parent="1">
          <mxGeometry x="500" y="330" width="30" height="20" as="geometry" />
        </mxCell>
        <mxCell id="m9dfge4vshhXxdxs11Ri-308" value="4" style="rounded=0;whiteSpace=wrap;html=1;" vertex="1" parent="1">
          <mxGeometry x="500" y="350" width="30" height="20" as="geometry" />
        </mxCell>
        <mxCell id="m9dfge4vshhXxdxs11Ri-309" value="5" style="rounded=0;whiteSpace=wrap;html=1;" vertex="1" parent="1">
          <mxGeometry x="500" y="370" width="30" height="20" as="geometry" />
        </mxCell>
        <mxCell id="m9dfge4vshhXxdxs11Ri-310" value="6" style="rounded=0;whiteSpace=wrap;html=1;" vertex="1" parent="1">
          <mxGeometry x="500" y="390" width="30" height="20" as="geometry" />
        </mxCell>
        <mxCell id="m9dfge4vshhXxdxs11Ri-311" value="7" style="rounded=0;whiteSpace=wrap;html=1;" vertex="1" parent="1">
          <mxGeometry x="500" y="410" width="30" height="20" as="geometry" />
        </mxCell>
        <mxCell id="m9dfge4vshhXxdxs11Ri-312" value="8" style="rounded=0;whiteSpace=wrap;html=1;" vertex="1" parent="1">
          <mxGeometry x="500" y="430" width="30" height="20" as="geometry" />
        </mxCell>
        <mxCell id="m9dfge4vshhXxdxs11Ri-313" value="9" style="rounded=0;whiteSpace=wrap;html=1;" vertex="1" parent="1">
          <mxGeometry x="500" y="450" width="30" height="20" as="geometry" />
        </mxCell>
        <mxCell id="m9dfge4vshhXxdxs11Ri-314" value="10" style="rounded=0;whiteSpace=wrap;html=1;" vertex="1" parent="1">
          <mxGeometry x="500" y="470" width="30" height="20" as="geometry" />
        </mxCell>
        <mxCell id="m9dfge4vshhXxdxs11Ri-315" value="2" style="rounded=0;whiteSpace=wrap;html=1;" vertex="1" parent="1">
          <mxGeometry x="500" y="310" width="30" height="20" as="geometry" />
        </mxCell>
        <mxCell id="m9dfge4vshhXxdxs11Ri-316" style="edgeStyle=orthogonalEdgeStyle;rounded=0;orthogonalLoop=1;jettySize=auto;html=1;entryX=0;entryY=0.5;entryDx=0;entryDy=0;" edge="1" parent="1" source="m9dfge4vshhXxdxs11Ri-317" target="m9dfge4vshhXxdxs11Ri-319">
          <mxGeometry relative="1" as="geometry">
            <Array as="points">
              <mxPoint x="540" y="320" />
            </Array>
          </mxGeometry>
        </mxCell>
        <mxCell id="m9dfge4vshhXxdxs11Ri-317" value="" style="rounded=0;whiteSpace=wrap;html=1;fillColor=#ffe6cc;strokeColor=#d79b00;" vertex="1" parent="1">
          <mxGeometry x="530" y="290" width="15" height="20" as="geometry" />
        </mxCell>
        <mxCell id="m9dfge4vshhXxdxs11Ri-318" style="edgeStyle=orthogonalEdgeStyle;rounded=0;orthogonalLoop=1;jettySize=auto;html=1;entryX=0;entryY=0.5;entryDx=0;entryDy=0;" edge="1" parent="1" source="m9dfge4vshhXxdxs11Ri-319" target="m9dfge4vshhXxdxs11Ri-321">
          <mxGeometry relative="1" as="geometry">
            <Array as="points">
              <mxPoint x="550" y="340" />
            </Array>
          </mxGeometry>
        </mxCell>
        <mxCell id="m9dfge4vshhXxdxs11Ri-319" value="" style="rounded=0;whiteSpace=wrap;html=1;fillColor=#ffe6cc;strokeColor=#d79b00;" vertex="1" parent="1">
          <mxGeometry x="550" y="310" width="10" height="20" as="geometry" />
        </mxCell>
        <mxCell id="m9dfge4vshhXxdxs11Ri-320" style="edgeStyle=orthogonalEdgeStyle;rounded=0;orthogonalLoop=1;jettySize=auto;html=1;entryX=0;entryY=0.5;entryDx=0;entryDy=0;" edge="1" parent="1" source="m9dfge4vshhXxdxs11Ri-321" target="m9dfge4vshhXxdxs11Ri-323">
          <mxGeometry relative="1" as="geometry">
            <Array as="points">
              <mxPoint x="570" y="360" />
            </Array>
          </mxGeometry>
        </mxCell>
        <mxCell id="m9dfge4vshhXxdxs11Ri-321" value="" style="rounded=0;whiteSpace=wrap;html=1;fillColor=#ffe6cc;strokeColor=#d79b00;" vertex="1" parent="1">
          <mxGeometry x="560" y="330" width="10" height="20" as="geometry" />
        </mxCell>
        <mxCell id="m9dfge4vshhXxdxs11Ri-322" style="edgeStyle=orthogonalEdgeStyle;rounded=0;orthogonalLoop=1;jettySize=auto;html=1;entryX=0;entryY=0.5;entryDx=0;entryDy=0;" edge="1" parent="1" source="m9dfge4vshhXxdxs11Ri-323" target="m9dfge4vshhXxdxs11Ri-325">
          <mxGeometry relative="1" as="geometry">
            <Array as="points">
              <mxPoint x="580" y="380" />
            </Array>
          </mxGeometry>
        </mxCell>
        <mxCell id="m9dfge4vshhXxdxs11Ri-323" value="" style="rounded=0;whiteSpace=wrap;html=1;fillColor=#ffe6cc;strokeColor=#d79b00;" vertex="1" parent="1">
          <mxGeometry x="580" y="350" width="10" height="20" as="geometry" />
        </mxCell>
        <mxCell id="m9dfge4vshhXxdxs11Ri-324" style="edgeStyle=orthogonalEdgeStyle;rounded=0;orthogonalLoop=1;jettySize=auto;html=1;entryX=0;entryY=0.5;entryDx=0;entryDy=0;" edge="1" parent="1" source="m9dfge4vshhXxdxs11Ri-325" target="m9dfge4vshhXxdxs11Ri-328">
          <mxGeometry relative="1" as="geometry">
            <Array as="points">
              <mxPoint x="600" y="400" />
            </Array>
          </mxGeometry>
        </mxCell>
        <mxCell id="m9dfge4vshhXxdxs11Ri-325" value="" style="rounded=0;whiteSpace=wrap;html=1;fillColor=#ffe6cc;strokeColor=#d79b00;" vertex="1" parent="1">
          <mxGeometry x="595" y="370" width="10" height="20" as="geometry" />
        </mxCell>
        <mxCell id="m9dfge4vshhXxdxs11Ri-326" value="2007" style="rounded=0;whiteSpace=wrap;html=1;" vertex="1" parent="1">
          <mxGeometry x="620" y="230" width="320" height="30" as="geometry" />
        </mxCell>
        <mxCell id="m9dfge4vshhXxdxs11Ri-327" style="edgeStyle=orthogonalEdgeStyle;rounded=0;orthogonalLoop=1;jettySize=auto;html=1;entryX=0;entryY=0.5;entryDx=0;entryDy=0;" edge="1" parent="1" source="m9dfge4vshhXxdxs11Ri-328" target="m9dfge4vshhXxdxs11Ri-330">
          <mxGeometry relative="1" as="geometry">
            <Array as="points">
              <mxPoint x="810" y="420" />
            </Array>
          </mxGeometry>
        </mxCell>
        <mxCell id="m9dfge4vshhXxdxs11Ri-328" value="" style="rounded=0;whiteSpace=wrap;html=1;fillColor=#ffe6cc;strokeColor=#d79b00;" vertex="1" parent="1">
          <mxGeometry x="610" y="390" width="210" height="20" as="geometry" />
        </mxCell>
        <mxCell id="m9dfge4vshhXxdxs11Ri-329" style="edgeStyle=orthogonalEdgeStyle;rounded=0;orthogonalLoop=1;jettySize=auto;html=1;entryX=0;entryY=0.5;entryDx=0;entryDy=0;" edge="1" parent="1" source="m9dfge4vshhXxdxs11Ri-330" target="m9dfge4vshhXxdxs11Ri-341">
          <mxGeometry relative="1" as="geometry">
            <Array as="points">
              <mxPoint x="860" y="440" />
            </Array>
          </mxGeometry>
        </mxCell>
        <mxCell id="m9dfge4vshhXxdxs11Ri-330" value="" style="rounded=0;whiteSpace=wrap;html=1;fillColor=#ffe6cc;strokeColor=#d79b00;" vertex="1" parent="1">
          <mxGeometry x="830" y="410" width="40" height="20" as="geometry" />
        </mxCell>
        <mxCell id="m9dfge4vshhXxdxs11Ri-331" value="" style="endArrow=none;html=1;rounded=0;exitX=1;exitY=1;exitDx=0;exitDy=0;" edge="1" parent="1" source="m9dfge4vshhXxdxs11Ri-306">
          <mxGeometry width="50" height="50" relative="1" as="geometry">
            <mxPoint x="870" y="450" as="sourcePoint" />
            <mxPoint x="940" y="310" as="targetPoint" />
          </mxGeometry>
        </mxCell>
        <mxCell id="m9dfge4vshhXxdxs11Ri-332" value="" style="endArrow=none;html=1;rounded=0;exitX=1;exitY=1;exitDx=0;exitDy=0;" edge="1" parent="1">
          <mxGeometry width="50" height="50" relative="1" as="geometry">
            <mxPoint x="530" y="330" as="sourcePoint" />
            <mxPoint x="940" y="330" as="targetPoint" />
          </mxGeometry>
        </mxCell>
        <mxCell id="m9dfge4vshhXxdxs11Ri-333" value="" style="endArrow=none;html=1;rounded=0;exitX=1;exitY=1;exitDx=0;exitDy=0;entryX=1;entryY=0.294;entryDx=0;entryDy=0;entryPerimeter=0;" edge="1" parent="1" target="m9dfge4vshhXxdxs11Ri-293">
          <mxGeometry width="50" height="50" relative="1" as="geometry">
            <mxPoint x="530" y="349.42999999999995" as="sourcePoint" />
            <mxPoint x="1310" y="349.42999999999995" as="targetPoint" />
          </mxGeometry>
        </mxCell>
        <mxCell id="m9dfge4vshhXxdxs11Ri-334" value="" style="endArrow=none;html=1;rounded=0;exitX=1;exitY=1;exitDx=0;exitDy=0;" edge="1" parent="1">
          <mxGeometry width="50" height="50" relative="1" as="geometry">
            <mxPoint x="530" y="370" as="sourcePoint" />
            <mxPoint x="940" y="370" as="targetPoint" />
          </mxGeometry>
        </mxCell>
        <mxCell id="m9dfge4vshhXxdxs11Ri-335" value="" style="endArrow=none;html=1;rounded=0;exitX=1;exitY=1;exitDx=0;exitDy=0;" edge="1" parent="1">
          <mxGeometry width="50" height="50" relative="1" as="geometry">
            <mxPoint x="530" y="390" as="sourcePoint" />
            <mxPoint x="940" y="390" as="targetPoint" />
          </mxGeometry>
        </mxCell>
        <mxCell id="m9dfge4vshhXxdxs11Ri-336" value="" style="endArrow=none;html=1;rounded=0;exitX=1;exitY=1;exitDx=0;exitDy=0;" edge="1" parent="1">
          <mxGeometry width="50" height="50" relative="1" as="geometry">
            <mxPoint x="530" y="410" as="sourcePoint" />
            <mxPoint x="940" y="410" as="targetPoint" />
          </mxGeometry>
        </mxCell>
        <mxCell id="m9dfge4vshhXxdxs11Ri-337" value="" style="endArrow=none;html=1;rounded=0;exitX=1;exitY=1;exitDx=0;exitDy=0;entryX=1.003;entryY=0.701;entryDx=0;entryDy=0;entryPerimeter=0;" edge="1" parent="1" target="m9dfge4vshhXxdxs11Ri-293">
          <mxGeometry width="50" height="50" relative="1" as="geometry">
            <mxPoint x="530" y="430" as="sourcePoint" />
            <mxPoint x="1310" y="430" as="targetPoint" />
          </mxGeometry>
        </mxCell>
        <mxCell id="m9dfge4vshhXxdxs11Ri-338" value="" style="endArrow=none;html=1;rounded=0;exitX=1;exitY=1;exitDx=0;exitDy=0;" edge="1" parent="1">
          <mxGeometry width="50" height="50" relative="1" as="geometry">
            <mxPoint x="530" y="449.30999999999995" as="sourcePoint" />
            <mxPoint x="940" y="449" as="targetPoint" />
          </mxGeometry>
        </mxCell>
        <mxCell id="m9dfge4vshhXxdxs11Ri-339" value="" style="endArrow=none;html=1;rounded=0;exitX=1;exitY=1;exitDx=0;exitDy=0;entryX=1;entryY=0;entryDx=0;entryDy=0;" edge="1" parent="1" target="m9dfge4vshhXxdxs11Ri-344">
          <mxGeometry width="50" height="50" relative="1" as="geometry">
            <mxPoint x="530" y="470" as="sourcePoint" />
            <mxPoint x="1310" y="470" as="targetPoint" />
          </mxGeometry>
        </mxCell>
        <mxCell id="m9dfge4vshhXxdxs11Ri-340" style="edgeStyle=orthogonalEdgeStyle;rounded=0;orthogonalLoop=1;jettySize=auto;html=1;entryX=0;entryY=0.5;entryDx=0;entryDy=0;" edge="1" parent="1" source="m9dfge4vshhXxdxs11Ri-341" target="m9dfge4vshhXxdxs11Ri-343">
          <mxGeometry relative="1" as="geometry">
            <Array as="points">
              <mxPoint x="888" y="460" />
            </Array>
          </mxGeometry>
        </mxCell>
        <mxCell id="m9dfge4vshhXxdxs11Ri-341" value="" style="rounded=0;whiteSpace=wrap;html=1;fillColor=#ffe6cc;strokeColor=#d79b00;" vertex="1" parent="1">
          <mxGeometry x="875" y="430" width="25" height="20" as="geometry" />
        </mxCell>
        <mxCell id="m9dfge4vshhXxdxs11Ri-342" style="edgeStyle=orthogonalEdgeStyle;rounded=0;orthogonalLoop=1;jettySize=auto;html=1;entryX=0;entryY=0.5;entryDx=0;entryDy=0;" edge="1" parent="1" source="m9dfge4vshhXxdxs11Ri-343" target="m9dfge4vshhXxdxs11Ri-344">
          <mxGeometry relative="1" as="geometry">
            <Array as="points">
              <mxPoint x="905" y="480" />
            </Array>
          </mxGeometry>
        </mxCell>
        <mxCell id="m9dfge4vshhXxdxs11Ri-343" value="" style="rounded=0;whiteSpace=wrap;html=1;fillColor=#ffe6cc;strokeColor=#d79b00;" vertex="1" parent="1">
          <mxGeometry x="900" y="450" width="10" height="20" as="geometry" />
        </mxCell>
        <mxCell id="m9dfge4vshhXxdxs11Ri-344" value="" style="rounded=0;whiteSpace=wrap;html=1;fillColor=#ffe6cc;strokeColor=#d79b00;" vertex="1" parent="1">
          <mxGeometry x="915" y="470" width="25" height="20" as="geometry" />
        </mxCell>
      </root>
    </mxGraphModel>
  </diagram>
</mxfile>
